<svg xmlns="http://www.w3.org/2000/svg" viewBox="0 0 96 96" role="img" aria-labelledby="title desc">
  <title id="title">Simurgh mark</title>
  <desc id="desc">Minimal Simurgh-inspired wing mark for the MDS assistant.</desc>
  <rect width="96" height="96" rx="22" fill="#09111c"/>
  <path d="M18 62c15-1 24-9 30-25 6 16 15 24 30 25-11 7-21 8-30 2-9 6-19 5-30-2z" fill="#f8fbff"/>
  <path d="M30 56c7-2 13-8 18-20 5 12 11 18 18 20-6 3-12 4-18 1-6 3-12 2-18-1z" fill="#5fb9ff"/>
  <path d="M48 36v38" stroke="#f0b429" stroke-width="5" stroke-linecap="round"/>
  <path d="M39 76h18l-9 9z" fill="#f0b429"/>
  <circle cx="48" cy="31" r="5" fill="#79d0ff"/>
</svg>
